<svg width="38" height="38" viewBox="0 0 38 38" fill="none" xmlns="http://www.w3.org/2000/svg">
<path d="M17.456 33.25V29.8458C16.0574 29.5292 14.8498 28.9222 13.8333 28.025C12.8168 27.1278 12.0716 25.8611 11.5977 24.225L14.5268 23.0375C14.9227 24.3042 15.5101 25.2674 16.2891 25.9271C17.0681 26.5868 18.0904 26.9167 19.356 26.9167C20.4379 26.9167 21.3552 26.6723 22.1078 26.1836C22.8604 25.6949 23.2362 24.9364 23.2352 23.9083C23.2352 22.9847 22.9449 22.2527 22.3643 21.7123C21.7838 21.1718 20.4379 20.558 18.3268 19.8708C16.0574 19.1583 14.5004 18.307 13.656 17.3169C12.8115 16.3268 12.3893 15.1198 12.3893 13.6958C12.3893 11.9806 12.9435 10.6479 14.0518 9.69792C15.1602 8.74792 16.2949 8.20694 17.456 8.075V4.75H20.6227V8.075C21.9421 8.28611 23.0309 8.76797 23.8891 9.52058C24.7472 10.2732 25.3737 11.1899 25.7685 12.2708L22.8393 13.5375C22.5227 12.6931 22.074 12.0597 21.4935 11.6375C20.9129 11.2153 20.1213 11.0042 19.1185 11.0042C17.9574 11.0042 17.0734 11.2617 16.4664 11.7768C15.8595 12.2919 15.556 12.9316 15.556 13.6958C15.556 14.5667 15.9518 15.2528 16.7435 15.7542C17.5352 16.2556 18.9074 16.7833 20.8602 17.3375C22.681 17.8653 24.0601 18.7034 24.9974 19.8518C25.9347 21.0003 26.4029 22.3261 26.4018 23.8292C26.4018 25.7028 25.8477 27.1278 24.7393 28.1042C23.631 29.0806 22.2588 29.6875 20.6227 29.925V33.25H17.456Z" fill="#4743E0"/>
</svg>
